# xmcd
#
# Track frame offsets: 
#        150
#        14183
#        26686
#        39227
#        53094
#        66864
#        80489
#        94818
#        107764
#        120126
#        133814
#        148590
#        161846
#        175605
#        188206
#        202214
#        216553
#        229354
#
# Disc length: 3221 seconds
#
# Revision: 0
# Processed by: cddbd v1.5.2PL0 Copyright (c) Steve Scherf et al.
# Submitted via: ExactAudioCopy v0.99pb5
#
DISCID=0a0c9312
DTITLE=Various Artist - Smithsonian Collection of Classic Country Music Disc 
DTITLE=01
DYEAR=1981
DGENRE=Country
TTITLE0=Eck Robertson - Sallie Gooden
TTITLE1=Fiddlin' John Carson - The Little Old Log Cabin in the Lane
TTITLE2=Grayson and Whitter - Going Down the Lee Highway
TTITLE3=Uncle Dave Macon- Jordan Is a Hard Road To Travel
TTITLE4=Vernon Dalhart - The Prisoner's Song
TTITLE5=Charlie Poole - Goodbye Sweet Liza Jane
TTITLE6=Vernon Dalhart - Wreck of the Old 97
TTITLE7=Gid Tanner and His Skillet Lickers - Soldier's Joy
TTITLE8=Smith's Sacred Singers - Where We'll Never Grow Old
TTITLE9=East Texas Serenaders - Shannon Waltz
TTITLE10=Darby and Tarlton - Birmingham Jail
TTITLE11=Buell Kazee - Lady Gay
TTITLE12=Bradley Kincaid - The Fatal Wedding
TTITLE13=Carl Sprague - When the Work's All Done This Fall
TTITLE14=Ernest V. Stoneman - The Titanic
TTITLE15=Carter Family - Wildwood Flower
TTITLE16=Jimmie Rodgers - Daddy and Home
TTITLE17=Jimmie Rodgers - Waiting for a Train
EXTD=
EXTT0=
EXTT1=
EXTT2=
EXTT3=
EXTT4=
EXTT5=
EXTT6=
EXTT7=
EXTT8=
EXTT9=
EXTT10=
EXTT11=
EXTT12=
EXTT13=
EXTT14=
EXTT15=
EXTT16=
EXTT17=
PLAYORDER=
